<?xml version="1.0" standalone="no"?>
<!DOCTYPE svg PUBLIC "-//W3C//DTD SVG 20010904//EN"
 "http://www.w3.org/TR/2001/REC-SVG-20010904/DTD/svg10.dtd">
<svg version="1.0" xmlns="http://www.w3.org/2000/svg"
 width="512.000000pt" height="512.000000pt" viewBox="0 0 512.000000 512.000000"
 preserveAspectRatio="xMidYMid meet">
<metadata>
Created by potrace 1.11, written by Peter Selinger 2001-2013
</metadata>
<g transform="translate(0.000000,512.000000) scale(0.100000,-0.100000)"
fill="#000000" stroke="none">
<path d="M0 2560 l0 -2560 2560 0 2560 0 0 2560 0 2560 -2560 0 -2560 0 0
-2560z m2610 1745 c270 -36 491 -163 615 -353 l30 -46 3 177 2 177 163 -2 162
-3 0 -495 0 -495 -162 -3 -162 -2 -6 47 c-24 191 -75 308 -186 427 -172 184
-400 275 -659 263 -145 -7 -244 -29 -345 -77 -175 -84 -274 -222 -296 -417
-18 -157 14 -262 110 -365 104 -113 238 -186 591 -322 399 -154 433 -168 550
-223 222 -105 410 -254 511 -408 104 -160 144 -311 136 -520 -6 -152 -29 -249
-86 -364 -132 -262 -381 -453 -699 -537 -120 -32 -361 -44 -494 -25 -287 42
-522 163 -679 349 l-44 53 -3 -175 -2 -176 -160 0 -160 0 2 528 3 527 156 3
156 2 6 -67 c26 -313 304 -611 655 -703 116 -31 250 -42 362 -30 121 12 183
31 295 88 210 108 325 297 325 532 0 149 -35 250 -125 363 -62 78 -156 146
-300 217 -107 52 -203 90 -685 267 -411 151 -638 331 -739 585 -41 102 -54
183 -54 328 1 145 21 236 76 346 155 307 452 490 872 538 71 8 167 5 265 -9z"/>
</g>
</svg>
